<svg width="40" height="40" viewBox="0 0 40 40" fill="none" xmlns="http://www.w3.org/2000/svg">
<path d="M39.0392 30.1295C38.4292 29.7001 31.7467 25.2548 30.9284 24.7542C30.5716 24.5358 30.1363 24.4284 29.6623 24.4284C29.0523 24.4284 28.3749 24.6057 27.715 24.954C27.0726 25.2923 25.1241 26.402 24.1711 26.9463C23.3315 26.3558 21.3593 24.8454 18.252 21.732C15.1633 18.6437 13.6402 16.6539 13.0464 15.8088C13.5891 14.855 14.6968 12.9064 15.0336 12.2648C15.671 11.0551 15.7446 9.84677 15.2269 9.03286C14.7417 8.26514 10.3158 1.55042 9.85924 0.918765C9.42887 0.323316 8.65796 0 7.82093 0C7.16103 0 6.45998 0.199732 5.85248 0.622913C5.79385 0.664108 -0.0765834 4.92463 0.000757533 7.34638C0.216564 14.151 6.82547 22.1477 12.3292 27.6578C17.8328 33.1679 25.8252 39.7828 32.6524 40H32.7085C35.0986 40 39.2999 34.2003 39.3399 34.1429C40.4426 32.5675 40.0409 30.8311 39.0367 30.127L39.0392 30.1295ZM37.3153 32.6911C35.7335 34.8844 33.4857 37.175 32.6075 37.5034C27.9283 37.2837 21.3631 33.1679 14.0955 25.8952C6.82797 18.6225 2.71767 12.0575 2.50062 7.39132C2.81622 6.50875 5.10526 4.24679 7.27705 2.67391C7.43796 2.56281 7.63631 2.49789 7.82093 2.49789C7.86209 2.49789 7.89702 2.50164 7.92322 2.50663C8.62552 3.52651 12.3915 9.23384 13.0751 10.2999C13.0776 10.4123 13.0402 10.6969 12.8256 11.1038C12.5986 11.5382 11.8888 12.8028 10.8809 14.5704L10.0962 15.9473L11.0056 17.2443C11.6842 18.208 13.2984 20.3052 16.4881 23.4972C19.6903 26.7041 21.7785 28.3145 22.739 28.9885L24.0351 29.8998L25.4098 29.1134C26.7433 28.3507 28.3537 27.4381 28.8764 27.1623C29.2968 26.9413 29.5837 26.9226 29.6623 26.9226C29.6747 26.9226 29.686 26.9226 29.6947 26.9238C30.649 27.523 36.4758 31.3941 37.5036 32.0994C37.5211 32.1992 37.5049 32.4164 37.3153 32.6873V32.6911ZM25.1416 14.7165C25.3025 14.8788 25.5295 14.9786 25.7802 14.9724L26.2368 14.9624C26.2455 14.9624 26.2518 14.9586 26.2618 14.9586L35.2084 14.9973C35.7123 14.9861 36.129 14.5679 36.1402 14.0636V13.4232C36.0641 12.829 35.5963 12.4807 35.0924 12.492L29.1857 12.477L39.3972 2.27195C39.8837 1.78385 39.8837 0.993665 39.3972 0.505571C38.9107 0.0174765 38.1211 0.0187249 37.6334 0.505571L27.3932 10.7381L27.4269 4.69869C27.4381 4.19436 27.0389 3.75495 26.5349 3.76619L25.895 3.76744C25.3898 3.77992 24.9732 4.08077 24.9619 4.58509L24.937 13.5967C24.937 13.6055 24.9707 13.6117 24.9707 13.6204L24.9208 14.0773C24.9158 14.3307 24.9757 14.5567 25.1378 14.719L25.1416 14.7165Z" fill="white"/>
</svg>
