<svg width="37" height="26" viewBox="0 0 37 26" fill="none" xmlns="http://www.w3.org/2000/svg">
<path d="M31.6388 16.3455C33.7722 18.4038 34.8091 21.2002 34.8091 24.8963C34.8091 25.5057 35.2998 26.0002 35.9045 26.0002C36.5092 26.0002 37 25.5117 37 24.9023C37 20.6322 35.7062 17.2242 33.1538 14.7629C27.2514 9.07087 16.1209 9.57428 7.17915 9.97061C5.93032 10.0264 4.73571 10.0871 3.61943 10.1252L11.7955 1.88458C12.2232 1.45348 12.2232 0.754669 11.7955 0.323569C11.3677 -0.107531 10.6737 -0.107531 10.2465 0.323569L0.320973 10.3272C0.115572 10.5342 0 10.8151 0 11.1077C0 11.4002 0.115572 11.6812 0.320973 11.8882L10.2476 21.8902C10.4617 22.106 10.7416 22.2136 11.0221 22.2136C11.3025 22.2136 11.5829 22.106 11.7971 21.8902C12.2249 21.4591 12.2249 20.7597 11.7971 20.3292L3.97053 12.4441C5.01944 12.3833 6.12422 12.3 7.27501 12.2486C15.3508 11.891 26.4123 11.3059 31.6388 16.3455Z" fill="#001F36"/>
</svg>
