<svg width="28" height="28" viewBox="0 0 28 28" fill="none" xmlns="http://www.w3.org/2000/svg">
<path d="M15.414 14L27.207 2.20701C27.598 1.81701 27.598 1.18401 27.207 0.793006C26.816 0.402006 26.184 0.402006 25.793 0.793006L14 12.586L2.20701 0.793006C1.81701 0.402006 1.18401 0.402006 0.793006 0.793006C0.402006 1.18401 0.402006 1.81601 0.793006 2.20701L12.586 14L0.793006 25.793C0.402006 26.184 0.402006 26.816 0.793006 27.207C0.988006 27.402 1.24501 27.5 1.50001 27.5C1.75601 27.5 2.01101 27.402 2.20701 27.207L14 15.414L25.793 27.207C25.988 27.402 26.244 27.5 26.5 27.5C26.756 27.5 27.012 27.402 27.207 27.207C27.598 26.816 27.598 26.184 27.207 25.793L15.414 14Z" fill="#001F36"/>
</svg>
